<?xml version="1.0" standalone="no"?>
<!DOCTYPE svg PUBLIC "-//W3C//DTD SVG 20010904//EN"
 "http://www.w3.org/TR/2001/REC-SVG-20010904/DTD/svg10.dtd">
<svg version="1.0" xmlns="http://www.w3.org/2000/svg"
 width="908.000000pt" height="908.000000pt" viewBox="0 0 908.000000 908.000000"
 preserveAspectRatio="xMidYMid meet">
<metadata>
Created by potrace 1.14, written by Peter Selinger 2001-2017
</metadata>
<g transform="translate(0.000000,908.000000) scale(0.100000,-0.100000)"
fill="#000000" stroke="none">
<path d="M4275 8614 c-835 -67 -1559 -337 -2198 -821 -279 -212 -570 -502
-778 -778 -451 -597 -711 -1248 -806 -2015 -25 -204 -25 -686 0 -890 37 -299
99 -583 176 -813 l40 -119 -38 -77 c-102 -203 -209 -492 -261 -703 -46 -186
-62 -316 -62 -483 -1 -240 48 -429 151 -585 325 -494 1095 -572 2167 -220
1578 519 3506 1923 4781 3483 226 276 526 695 663 926 51 86 44 96 94 -120
152 -660 121 -1366 -90 -2010 -410 -1255 -1449 -2206 -2734 -2503 -492 -113
-1048 -125 -1520 -33 -158 30 -216 29 -277 -9 -34 -21 -55 -43 -72 -77 -22
-44 -22 -50 -9 -85 25 -67 76 -87 335 -132 253 -44 388 -54 698 -54 312 0 443
10 705 55 258 45 551 128 807 230 670 267 1290 739 1725 1315 450 596 710
1247 805 2014 25 204 25 686 0 890 -38 304 -98 581 -180 825 l-44 130 54 114
c123 263 217 534 270 786 25 119 27 149 28 350 0 237 -11 307 -70 453 -58 143
-176 291 -299 375 -350 238 -887 269 -1592 92 l-180 -46 -85 47 c-431 240
-951 404 -1494 470 -124 15 -596 27 -710 18z m690 -319 c739 -88 1410 -376
1982 -850 135 -112 372 -349 478 -478 86 -105 107 -116 182 -102 48 9 109 69
118 116 12 62 -10 110 -91 205 -180 212 -442 458 -666 625 -134 100 -135 86
12 109 108 18 414 24 526 11 287 -33 468 -113 630 -276 78 -78 99 -106 138
-186 56 -117 83 -214 96 -352 31 -341 -79 -774 -323 -1262 -743 -1491 -2554
-3198 -4337 -4089 -244 -121 -366 -177 -590 -266 -155 -62 -470 -169 -505
-172 -27 -2 -270 159 -415 274 -591 472 -1018 1088 -1249 1802 -241 746 -240
1570 5 2317 473 1448 1764 2464 3289 2589 154 12 565 4 720 -15z m-3970 -5740
c79 -137 211 -338 302 -458 213 -281 497 -565 781 -780 98 -74 110 -87 90 -91
-140 -30 -451 -44 -608 -27 -287 31 -473 111 -636 275 -94 95 -143 173 -185
293 -89 256 -71 595 52 979 l41 127 52 -109 c29 -60 79 -154 111 -209z"/>
</g>
</svg>
